<svg xmlns="http://www.w3.org/2000/svg" width="50" height="50" viewBox="0 0 34 34">
  <g id="Group_1" data-name="Group 1" transform="translate(-26 -360)">
    <g id="Ellipse_3" data-name="Ellipse 3" transform="translate(26 360)" fill="none" stroke="#fff" stroke-width="0.5" opacity="0.3">
      <circle cx="17" cy="17" r="17" stroke="none"/>
      <circle cx="17" cy="17" r="16.75" fill="none"/>
    </g>
    <path id="Icon_awesome-instagram" data-name="Icon awesome-instagram" d="M6.314,5.315A3.239,3.239,0,1,0,9.553,8.554,3.234,3.234,0,0,0,6.314,5.315Zm0,5.345A2.106,2.106,0,1,1,8.42,8.554,2.11,2.11,0,0,1,6.314,10.66Zm4.127-5.477a.755.755,0,1,1-.755-.755A.754.754,0,0,1,10.441,5.183Zm2.145.767A3.739,3.739,0,0,0,11.566,3.3a3.763,3.763,0,0,0-2.647-1.02c-1.043-.059-4.169-.059-5.212,0A3.758,3.758,0,0,0,1.06,3.3,3.751,3.751,0,0,0,.039,5.947c-.059,1.043-.059,4.169,0,5.212a3.739,3.739,0,0,0,1.02,2.647,3.768,3.768,0,0,0,2.647,1.02c1.043.059,4.169.059,5.212,0a3.739,3.739,0,0,0,2.647-1.02,3.763,3.763,0,0,0,1.02-2.647c.059-1.043.059-4.166,0-5.209Zm-1.347,6.328a2.132,2.132,0,0,1-1.2,1.2,13.922,13.922,0,0,1-3.724.254,14.031,14.031,0,0,1-3.724-.254,2.132,2.132,0,0,1-1.2-1.2,13.922,13.922,0,0,1-.254-3.724A14.031,14.031,0,0,1,1.389,4.83a2.132,2.132,0,0,1,1.2-1.2,13.922,13.922,0,0,1,3.724-.254,14.031,14.031,0,0,1,3.724.254,2.132,2.132,0,0,1,1.2,1.2,13.922,13.922,0,0,1,.254,3.724A13.914,13.914,0,0,1,11.239,12.278Z" transform="translate(37.078 368.229)" fill="#fff" opacity="0.45"/>
  </g>
</svg>
